HIERARCHY
ROOT root
{
	OFFSET 0.000000 0.000000 0.000000
	CHANNELS 6 Xposition Yposition Zposition Zrotation Yrotation Xrotation
	JOINT lhip
	{
		OFFSET 0.058581 -0.082280 -0.017664
		CHANNELS 3 Zrotation Yrotation Xrotation
		JOINT lknee
		{
			OFFSET 0.043451 -0.386469 0.008037
			CHANNELS 3 Zrotation Yrotation Xrotation
			JOINT lankle
			{
				OFFSET -0.014790 -0.426874 -0.037428
				CHANNELS 3 Zrotation Yrotation Xrotation
				JOINT ltoe
				{
					OFFSET 0.041054 -0.060286 0.122042
					CHANNELS 3 Zrotation Yrotation Xrotation
					End Site
					{
						OFFSET 0.000000 0.000000 0.000000
					}
				}
			}
		}
	}
	JOINT rhip
	{
		OFFSET -0.060310 -0.090513 -0.013543
		CHANNELS 3 Zrotation Yrotation Xrotation
		JOINT rknee
		{
			OFFSET -0.043257 -0.383688 -0.004843
			CHANNELS 3 Zrotation Yrotation Xrotation
			JOINT rankle
			{
				OFFSET 0.019056 -0.420046 -0.034562
				CHANNELS 3 Zrotation Yrotation Xrotation
				JOINT rtoe
				{
					OFFSET -0.034840 -0.062106 0.130323
					CHANNELS 3 Zrotation Yrotation Xrotation
					End Site
					{
						OFFSET 0.000000 0.000000 0.000000
					}
				}
			}
		}
	}
	JOINT lowerback
	{
		OFFSET 0.004439 0.124404 -0.038385
		CHANNELS 3 Zrotation Yrotation Xrotation
		JOINT upperback
		{
			OFFSET 0.004488 0.137956 0.026820
			CHANNELS 3 Zrotation Yrotation Xrotation
			JOINT chest
			{
				OFFSET -0.002265 0.056032 0.002855
				CHANNELS 3 Zrotation Yrotation Xrotation
				JOINT lowerneck
				{
					OFFSET -0.013390 0.211636 -0.033468
					CHANNELS 3 Zrotation Yrotation Xrotation
					JOINT upperneck
					{
						OFFSET 0.010113 0.088937 0.050410
						CHANNELS 3 Zrotation Yrotation Xrotation
						End Site
						{
							OFFSET 0.000000 0.000000 0.000000
						}
					}
				}
				JOINT lclavicle
				{
					OFFSET 0.071702 0.114000 -0.018898
					CHANNELS 3 Zrotation Yrotation Xrotation
					JOINT lshoulder
					{
						OFFSET 0.122921 0.045205 -0.019046
						CHANNELS 3 Zrotation Yrotation Xrotation
						JOINT lelbow
						{
							OFFSET 0.255332 -0.015649 -0.022946
							CHANNELS 3 Zrotation Yrotation Xrotation
							JOINT lwrist
							{
								OFFSET 0.265709 0.012698 -0.007375
								CHANNELS 3 Zrotation Yrotation Xrotation
								End Site
								{
									OFFSET 0.000000 0.000000 0.000000
								}
							}
						}
					}
				}
				JOINT rclavicle
				{
					OFFSET -0.082954 0.112472 -0.023707
					CHANNELS 3 Zrotation Yrotation Xrotation
					JOINT rshoulder
					{
						OFFSET -0.113228 0.046853 -0.008472
						CHANNELS 3 Zrotation Yrotation Xrotation
						JOINT relbow
						{
							OFFSET -0.260127 -0.014369 -0.031269
							CHANNELS 3 Zrotation Yrotation Xrotation
							JOINT rwrist
							{
								OFFSET -0.269108 0.006794 -0.006027
								CHANNELS 3 Zrotation Yrotation Xrotation
								End Site
								{
									OFFSET 0.000000 0.000000 0.000000
								}
							}
						}
					}
				}
			}
		}
	}
}
MOTION
Frames: 10
Frame Time: 0.033333
0.049164 0.255424 0.995720 -179.427177 1.618914 95.502394 6.295567 1.841259 -0.100076 2.037006 -5.727970 -4.623358 -4.102797 10.036386 -5.649795 0.000000 -0.000000 0.000000 -0.723108 -0.728034 -4.134785 1.189118 0.608252 5.031789 6.435540 -7.756983 -7.680220 0.000000 -0.000000 0.000000 -4.684751 2.148938 -3.329365 -0.218434 -2.874894 -0.414278 0.351273 0.732006 -6.844048 0.406668 17.289989 6.984840 10.185837 7.905844 -9.846333 -2.403660 0.234919 -12.157895 -1.818096 -4.805819 -6.481787 31.746185 -42.628439 -50.334952 -25.603275 -30.387850 -15.397529 2.281564 1.512144 -1.113237 20.085157 -14.793682 10.970862 145.702780 57.341801 156.230617 22.466537 29.074251 -5.519960 
0.048006 0.254464 0.996274 -179.413470 1.559914 95.473448 6.138708 1.904058 -0.253768 2.012775 -5.616578 -4.450817 -3.990326 9.705744 -5.681445 0.000000 -0.000000 0.000000 -0.874096 -0.908014 -4.331114 1.100820 0.799864 5.297795 6.635794 -7.733767 -7.563180 0.000000 -0.000000 0.000000 -4.700605 2.207580 -3.515601 0.076879 -2.649153 -0.317812 0.281234 0.922060 -6.483590 0.447454 15.459000 7.378230 9.850737 6.570292 -10.582482 -0.674732 1.628294 -11.920426 -2.220495 -5.636911 -4.055107 36.264221 -51.729686 -46.381336 -23.288794 -28.317555 -11.871185 1.079072 0.619718 -2.296362 17.903349 -10.756282 8.731040 151.659813 58.983529 162.547618 15.876512 27.984094 -4.690039 
0.046369 0.253294 0.997591 -178.980477 1.485977 95.212538 5.977082 2.031249 -0.222825 2.008146 -5.840170 -4.285997 -3.830738 9.316708 -5.733327 0.000000 -0.000000 0.000000 -0.955366 -1.248084 -4.145470 0.979941 0.994232 5.451862 6.712070 -7.942865 -7.541874 0.000000 -0.000000 0.000000 -4.483509 2.146698 -3.247083 0.264231 -2.515252 -0.181471 0.161559 1.005340 -6.460698 0.374736 13.711750 7.538788 9.355202 5.259369 -11.013656 0.616509 2.317052 -11.572015 -2.361383 -6.367985 -2.168652 42.647244 -61.019610 -44.780669 -21.070691 -26.282767 -8.566241 -0.135166 0.472238 -2.863707 16.243205 -7.495390 6.842353 157.393800 60.085579 168.129866 11.247550 28.539572 -6.691989 
0.044329 0.251776 0.998842 -178.368707 1.355393 95.077759 5.764678 1.844445 -0.410091 1.923084 -5.833955 -4.048751 -3.691769 8.903304 -5.821125 0.000000 -0.000000 0.000000 -1.094296 -1.393789 -4.197300 0.857532 0.781202 5.857057 6.720237 -8.139404 -7.665067 0.000000 -0.000000 0.000000 -4.317158 2.003543 -3.001437 0.475814 -2.549604 0.148762 0.151279 1.162996 -6.574618 0.114040 12.455888 7.163316 8.997467 4.008172 -11.640568 1.202674 2.460536 -11.475171 -1.902926 -6.794929 -0.413705 53.250442 -69.959293 -50.221833 -20.083891 -25.776099 -5.739276 -0.817409 0.946245 -3.394386 14.251552 -5.137353 5.541830 163.314557 60.109499 173.316882 9.784048 29.201915 -7.816760 
0.042705 0.249625 1.000123 -177.624148 1.206846 94.949281 5.559867 1.717730 -0.706869 1.854182 -5.992249 -3.743978 -3.671086 8.419994 -5.811749 0.000000 -0.000000 0.000000 -1.215672 -1.623969 -4.308507 0.761531 0.451983 6.329880 6.758482 -8.262380 -7.854524 0.000000 -0.000000 0.000000 -4.164210 2.037189 -2.800222 0.610285 -2.718191 0.822393 0.245179 1.035863 -6.782247 -0.257786 11.426044 6.284002 8.684086 3.416896 -12.150374 1.122091 1.670419 -11.186612 -1.223374 -6.564624 0.865903 78.810732 -77.086810 -71.941094 -18.653123 -25.752499 -3.209200 -0.434186 1.795992 -4.041265 11.512333 -3.193747 3.889991 166.316324 58.507042 176.955394 8.857221 29.273924 -4.231946 
0.041283 0.247330 1.001349 -176.910396 1.031936 94.872923 5.326694 1.519786 -1.094831 1.776059 -6.002233 -3.358195 -3.595125 7.977151 -5.897962 0.000000 -0.000000 0.000000 -1.387537 -1.802506 -4.447581 0.606409 0.103911 6.726148 6.545132 -8.267941 -7.855479 0.000000 -0.000000 0.000000 -4.091328 1.994399 -2.532360 0.787294 -2.930835 1.578826 0.418079 0.930866 -7.219932 -0.457641 10.696812 5.446615 8.262113 2.993918 -12.671700 0.404283 0.588242 -10.943800 -0.792616 -6.721415 2.000172 125.062985 -78.522655 -114.614153 -18.195413 -25.228938 0.868014 0.284194 2.987719 -4.274572 9.231298 -1.616731 2.786900 168.019051 56.479369 179.419358 8.569063 29.452575 -0.657065 
0.040093 0.244846 1.002463 -176.244793 0.871992 94.678022 5.137189 1.521435 -1.409385 1.657181 -6.417133 -2.878154 -3.492792 7.669477 -6.068055 0.000000 -0.000000 0.000000 -1.573418 -2.111469 -4.558907 0.514472 -0.132192 7.263588 6.331017 -8.267907 -8.008437 0.000000 -0.000000 0.000000 -3.978653 1.976732 -2.330732 0.986266 -3.145100 2.900578 0.601018 0.866924 -7.894218 -0.932595 9.711504 4.601952 7.840213 2.788579 -13.433148 -0.886360 -1.144676 -10.334361 -0.427820 -6.616623 3.154791 158.448272 -73.919813 -144.071107 -14.996096 -24.208203 4.769209 1.469796 4.533219 -4.052008 7.143631 -0.589360 2.043572 167.533951 54.641249 -179.319600 5.133519 30.101981 2.958158 
0.039195 0.242090 1.003443 -175.878388 0.713165 94.457593 4.912263 1.558029 -1.684877 1.536320 -6.684565 -2.359272 -3.324027 7.578022 -6.235229 0.000000 -0.000000 0.000000 -1.800471 -2.298396 -4.716546 0.440288 -0.243824 7.799376 6.187636 -8.191533 -8.056461 0.000000 -0.000000 0.000000 -3.938057 1.999360 -2.103239 1.172493 -3.342127 4.307926 0.853498 0.922072 -8.451711 -1.341707 8.737330 3.180410 7.460379 2.702849 -13.881737 -2.626775 -3.195003 -9.718926 -0.535997 -6.649190 4.734137 174.140585 -68.002967 -157.621148 -9.393009 -23.702147 8.409742 3.251589 6.212057 -3.541057 5.142565 0.122234 1.642705 165.486088 53.128489 -179.851714 -0.524618 30.602624 7.897343 
0.038631 0.239420 1.004564 -175.419468 0.664780 94.082746 4.848463 1.571347 -1.799302 1.395376 -7.084447 -1.829091 -3.381515 7.408684 -6.468137 0.000000 -0.000000 0.000000 -1.941913 -2.661646 -4.583975 0.467002 -0.302685 8.145374 6.048513 -8.029852 -8.075784 0.000000 -0.000000 0.000000 -3.636529 1.960516 -1.627718 1.362260 -3.689754 5.749937 0.992648 0.957656 -9.124296 -2.216537 7.684057 1.702400 7.395024 2.870452 -14.482060 -5.456453 -5.773257 -8.841850 -0.005891 -6.634435 6.691038 -176.413007 -63.575961 -166.232938 -3.188723 -24.591077 11.193703 5.899475 8.473754 -2.996899 3.044372 -0.074275 1.862357 163.140544 52.200730 177.907846 -4.088486 33.481788 10.793827 
0.038133 0.235998 1.005189 -175.268347 0.467092 93.814150 4.581514 1.677465 -2.024958 1.277013 -7.537268 -1.330615 -3.060294 7.556374 -6.654645 0.000000 -0.000000 0.000000 -2.265119 -2.953061 -4.838261 0.530283 -0.167892 8.873095 5.465160 -8.225436 -8.271429 0.000000 -0.000000 0.000000 -3.387189 2.002040 -0.487040 1.410727 -3.876210 6.144392 1.102476 0.946890 -9.532113 -3.035639 6.417745 -0.243243 7.306398 3.210845 -14.935747 -8.682924 -8.612534 -7.681649 0.271270 -6.376755 9.141101 -168.874589 -60.402961 -172.860044 4.163870 -25.742623 11.889189 9.170981 10.659119 -2.230215 1.586827 -0.122667 2.464737 159.709363 51.539769 175.628602 -9.905984 34.646266 14.504569 
